<svg width="205" height="22" fill="none" xmlns="http://www.w3.org/2000/svg"><path d="M13.672 13.716c.2 0 .368.072.504.216l1.428 1.524a6.785 6.785 0 0 1-2.628 2.04c-1.04.464-2.28.696-3.72.696-1.304 0-2.476-.22-3.516-.66a7.675 7.675 0 0 1-2.652-1.86c-.728-.792-1.288-1.732-1.68-2.82C1.016 11.764.82 10.576.82 9.288c0-.864.092-1.684.276-2.46a8.835 8.835 0 0 1 .828-2.16A8.438 8.438 0 0 1 3.22 2.892a7.835 7.835 0 0 1 1.728-1.344A8.01 8.01 0 0 1 7.036.696c.76-.2 1.568-.3 2.424-.3.64 0 1.244.056 1.812.168a8.765 8.765 0 0 1 1.608.468c.496.2.952.444 1.368.732.424.28.804.588 1.14.924l-1.212 1.656a1.13 1.13 0 0 1-.276.276c-.112.08-.264.12-.456.12s-.388-.068-.588-.204a9.881 9.881 0 0 0-.72-.456 5.027 5.027 0 0 0-1.068-.456c-.424-.136-.964-.204-1.62-.204-.728 0-1.396.132-2.004.396a4.378 4.378 0 0 0-1.572 1.152c-.432.496-.768 1.108-1.008 1.836s-.36 1.556-.36 2.484c0 .936.128 1.772.384 2.508.264.728.62 1.344 1.068 1.848.456.504.984.888 1.584 1.152a4.958 4.958 0 0 0 1.944.384c.408 0 .776-.02 1.104-.06.336-.04.644-.108.924-.204a3.88 3.88 0 0 0 .804-.372c.256-.152.512-.344.768-.576.088-.072.18-.132.276-.18a.688.688 0 0 1 .312-.072zm16.03-8.28c.929 0 1.773.148 2.533.444.76.296 1.412.72 1.956 1.272a5.541 5.541 0 0 1 1.26 1.992c.296.784.444 1.668.444 2.652 0 .984-.148 1.872-.444 2.664a5.662 5.662 0 0 1-1.26 2.004 5.521 5.521 0 0 1-1.956 1.272c-.76.296-1.604.444-2.532.444-.936 0-1.788-.148-2.556-.444a5.521 5.521 0 0 1-1.956-1.272 5.803 5.803 0 0 1-1.272-2.004c-.296-.792-.444-1.68-.444-2.664 0-.984.148-1.868.444-2.652a5.677 5.677 0 0 1 1.272-1.992 5.521 5.521 0 0 1 1.956-1.272c.768-.296 1.62-.444 2.556-.444zm0 10.26c.945 0 1.645-.324 2.1-.972.457-.656.685-1.628.685-2.916 0-1.28-.228-2.244-.684-2.892-.456-.656-1.156-.984-2.1-.984-.968 0-1.68.328-2.136.984-.456.648-.684 1.612-.684 2.892 0 1.288.228 2.26.684 2.916.456.648 1.168.972 2.136.972zM45.175 18V5.628h2.04c.416 0 .692.192.828.576l.192.804c.216-.224.436-.432.66-.624.232-.192.48-.356.744-.492.264-.144.548-.256.852-.336.312-.08.648-.12 1.008-.12.76 0 1.388.204 1.884.612.496.4.872.936 1.128 1.608a3.8 3.8 0 0 1 .732-1.008c.296-.288.616-.52.96-.696a4.52 4.52 0 0 1 1.104-.384 5.354 5.354 0 0 1 1.176-.132c.696 0 1.312.104 1.848.312.536.208.984.516 1.344.924.368.4.648.892.84 1.476.192.584.288 1.248.288 1.992V18H59.49v-7.86c0-1.448-.62-2.172-1.86-2.172-.28 0-.54.048-.78.144-.232.088-.44.224-.624.408a2.017 2.017 0 0 0-.42.684 2.806 2.806 0 0 0-.144.936V18H52.35v-7.86c0-.784-.156-1.34-.468-1.668-.304-.336-.756-.504-1.356-.504-.384 0-.748.092-1.092.276a3.53 3.53 0 0 0-.948.744V18h-3.312zm28.116 0V8.004l-.96-.168a1.383 1.383 0 0 1-.612-.264c-.152-.128-.228-.312-.228-.552V5.7h1.8v-.816c0-.704.108-1.34.324-1.908.224-.576.54-1.06.948-1.452.408-.4.908-.708 1.5-.924.592-.216 1.26-.324 2.004-.324.288 0 .56.02.816.06.264.032.528.084.792.156l-.072 1.632c-.016.248-.124.412-.324.492a1.835 1.835 0 0 1-.648.108c-.336 0-.64.036-.912.108a1.54 1.54 0 0 0-.672.372c-.184.168-.324.4-.42.696-.096.288-.144.648-.144 1.08v.72h3.072v2.304H76.59V18h-3.3zM99.757 5.628l-6.672 15.696a1.276 1.276 0 0 1-.384.504c-.144.112-.376.168-.696.168h-2.46l2.34-4.992-4.968-11.376h2.904c.264 0 .468.06.612.18.144.12.248.26.312.42l2.352 5.916c.088.232.164.468.228.708.072.232.14.464.204.696.144-.472.308-.944.492-1.416l2.184-5.904a.87.87 0 0 1 .348-.432.975.975 0 0 1 .552-.168h2.652z" fill="#222"/><path d="M123.631.588V18h-3.624v-7.5h-7.668V18h-3.624V.588h3.624V7.98h7.668V.588h3.624zm15.595 4.848c.928 0 1.772.148 2.532.444.76.296 1.412.72 1.956 1.272a5.541 5.541 0 0 1 1.26 1.992c.296.784.444 1.668.444 2.652 0 .984-.148 1.872-.444 2.664a5.662 5.662 0 0 1-1.26 2.004 5.521 5.521 0 0 1-1.956 1.272c-.76.296-1.604.444-2.532.444-.936 0-1.788-.148-2.556-.444a5.521 5.521 0 0 1-1.956-1.272 5.803 5.803 0 0 1-1.272-2.004c-.296-.792-.444-1.68-.444-2.664 0-.984.148-1.868.444-2.652a5.677 5.677 0 0 1 1.272-1.992 5.521 5.521 0 0 1 1.956-1.272c.768-.296 1.62-.444 2.556-.444zm0 10.26c.944 0 1.644-.324 2.1-.972.456-.656.684-1.628.684-2.916 0-1.28-.228-2.244-.684-2.892-.456-.656-1.156-.984-2.1-.984-.968 0-1.68.328-2.136.984-.456.648-.684 1.612-.684 2.892 0 1.288.228 2.26.684 2.916.456.648 1.168.972 2.136.972zm26.332-10.068V18h-2.04c-.424 0-.696-.192-.816-.576l-.216-.864c-.248.24-.504.46-.768.66a4.832 4.832 0 0 1-1.824.852c-.344.08-.72.12-1.128.12-.672 0-1.272-.116-1.8-.348a3.617 3.617 0 0 1-1.308-.972 4.298 4.298 0 0 1-.804-1.488 6.204 6.204 0 0 1-.276-1.896v-7.86h3.312v7.86c0 .688.156 1.224.468 1.608.32.376.792.564 1.416.564.464 0 .9-.1 1.308-.3a4.922 4.922 0 0 0 1.164-.84V5.628h3.312zm17.625 2.544c-.088.136-.18.236-.276.3a.692.692 0 0 1-.372.084c-.16 0-.324-.04-.492-.12a14.08 14.08 0 0 0-.564-.252 5.282 5.282 0 0 0-.72-.264 3.197 3.197 0 0 0-.924-.12c-.536 0-.952.112-1.248.336a1.017 1.017 0 0 0-.444.864c0 .248.084.456.252.624.168.168.388.316.66.444.28.12.596.236.948.348.352.104.712.22 1.08.348.376.128.74.276 1.092.444.352.168.664.38.936.636.28.248.504.552.672.912.168.352.252.78.252 1.284 0 .6-.112 1.156-.336 1.668-.216.504-.536.94-.96 1.308-.424.368-.952.656-1.584.864-.632.208-1.36.312-2.184.312-.424 0-.844-.04-1.26-.12a6.99 6.99 0 0 1-1.188-.312 8.011 8.011 0 0 1-1.056-.492 4.719 4.719 0 0 1-.852-.6l.768-1.236c.088-.144.196-.256.324-.336.136-.08.308-.12.516-.12.2 0 .384.052.552.156l.564.324c.208.112.452.22.732.324.288.096.644.144 1.068.144.32 0 .596-.036.828-.108.232-.072.42-.168.564-.288.144-.128.248-.268.312-.42.072-.16.108-.324.108-.492a.87.87 0 0 0-.264-.66 2.154 2.154 0 0 0-.672-.456 6.422 6.422 0 0 0-.948-.348c-.36-.104-.728-.22-1.104-.348a9.861 9.861 0 0 1-1.092-.456 3.945 3.945 0 0 1-.948-.66 3.305 3.305 0 0 1-.672-.996c-.168-.392-.252-.868-.252-1.428 0-.512.1-.996.3-1.452.2-.464.5-.872.9-1.224s.896-.632 1.488-.84c.6-.208 1.292-.312 2.076-.312.88 0 1.68.144 2.4.432.72.288 1.312.664 1.776 1.128l-.756 1.176zm17.974 2.184c0-.344-.048-.672-.144-.984a2.217 2.217 0 0 0-.432-.828c-.2-.24-.452-.428-.756-.564-.304-.144-.668-.216-1.092-.216-.792 0-1.412.224-1.86.672-.448.448-.74 1.088-.876 1.92h5.16zm-5.208 1.968c.104 1.16.432 2.008.984 2.544.56.536 1.288.804 2.184.804.456 0 .848-.052 1.176-.156.336-.112.628-.232.876-.36.256-.136.484-.256.684-.36.208-.112.412-.168.612-.168.256 0 .456.096.6.288l.96 1.2c-.352.408-.74.748-1.164 1.02a6.672 6.672 0 0 1-1.32.636 7.012 7.012 0 0 1-1.38.312 9.839 9.839 0 0 1-1.344.096c-.864 0-1.672-.14-2.424-.42a5.672 5.672 0 0 1-1.956-1.26c-.552-.56-.988-1.252-1.308-2.076-.32-.824-.48-1.78-.48-2.868 0-.84.136-1.632.408-2.376.28-.744.68-1.392 1.2-1.944a5.617 5.617 0 0 1 1.896-1.308c.744-.328 1.584-.492 2.52-.492.792 0 1.52.128 2.184.384a4.718 4.718 0 0 1 1.728 1.092c.488.48.864 1.072 1.128 1.776.272.696.408 1.492.408 2.388 0 .248-.012.452-.036.612-.024.16-.064.288-.12.384a.469.469 0 0 1-.228.204 1.2 1.2 0 0 1-.372.048h-7.416z" fill="#F09D51"/></svg>